<svg id="Capa_1" enable-background="new 0 0 512 512" height="512" viewBox="0 0 512 512" width="512" xmlns="http://www.w3.org/2000/svg"><g><g><path d="m29.724 374.465v-76.73c0-121.063 95.074-219.921 214.631-225.981 3.857-.195 7.739.706 11.644.706v-3c124.969 0 206.276 103.307 206.276 228.275v76.73l-137.253-10v-61.671c0-32.597-36.425-59.023-69.023-59.023-32.597 0-69.023 26.425-69.023 59.023v61.671l-100.601 10z" fill="#e5646e"/><path d="m482.28 297.74v76.73h-30v-76.73c0-62.48-25.33-119.06-66.28-160-37.64-37.65-88.49-62.09-145-65.79 4.96-.33 9.96-.49 15-.49 62.48 0 119.06 25.33 160 66.28 40.95 40.94 66.28 97.52 66.28 160z" fill="#db4655"/><path d="m426.52 304.42v70.05l-101.5-10v-61.68c0-32.59-36.42-59.02-69.02-59.02-32.164 0-69.02 26.856-69.02 59.02v61.68l-101.5 10v-70.05c0-94.18 76.34-170.52 170.52-170.52 47.09 0 89.72 19.08 120.58 49.94s49.94 73.49 49.94 120.58z" fill="#ffe07d"/><path d="m370.77 308.11v66.36h-55.75v-61.68c0-32.59-26.42-59.02-59.02-59.02-32.164 0-59.02 26.856-59.02 59.02v61.68h-55.75v-66.36c0-63.39 51.38-114.78 114.77-114.78 31.7 0 60.39 12.85 81.16 33.62 20.76 20.77 33.61 49.47 33.61 81.16z" fill="#8ad3a5"/><path d="m442.259 356.058h-5.979c-2.223 0-4.028-1.727-4.209-3.943-2.005-24.482-2.509-42.725-27.507-42.725-5.237 0-10.277-.155-14.991 1.405-17.787 5.888-30.932 21.967-32.516 41.32-.182 2.216-1.986 3.943-4.209 3.943h-33.023c-23.329 0-42.241 18.912-42.241 42.241 0 23.329 18.912 42.241 42.241 42.241h122.435c23.329 0 42.241-18.912 42.241-42.241-.001-23.329-18.913-42.241-42.242-42.241z" fill="#f7f3f1"/><path d="m504.5 398.3c0 23.33-18.91 42.24-42.24 42.24h-30c23.33 0 42.24-18.91 42.24-42.24 0-11.66-4.73-22.22-12.37-29.87-7.65-7.64-18.21-12.37-29.87-12.37h-5.98c-2.22 0-4.03-1.73-4.21-3.94-1.58-19.36-14.73-35.43-32.51-41.32 4.72-1.56 9.76-2.41 15-2.41 25 0 45.51 19.24 47.51 43.73.18 2.21 1.99 3.94 4.21 3.94h5.98c11.66 0 22.22 4.73 29.87 12.37 7.64 7.65 12.37 18.21 12.37 29.87z" fill="#ede2de"/><path d="m49.741 356.058h5.979c2.223 0 4.028-1.727 4.209-3.943 1.584-19.351 14.727-35.429 32.511-41.318 4.716-1.562 9.757-1.407 14.997-1.407 24.999 0 35.503 18.243 37.507 42.725.182 2.216 1.986 3.943 4.209 3.943h33.023c23.329 0 42.241 18.912 42.241 42.241 0 23.329-18.912 42.241-42.241 42.241h-132.435c-23.329 0-42.241-18.912-42.241-42.241 0-23.329 18.912-42.241 42.241-42.241z" fill="#f7f3f1"/><g fill="#ede2de"><path d="m159.15 356.06h-30c-2.22 0-4.02-1.73-4.21-3.94-1.58-19.36-14.72-35.43-32.5-41.32 4.72-1.56 9.76-2.41 15-2.41 24.99 0 45.5 19.24 47.5 43.73.19 2.21 1.99 3.94 4.21 3.94z"/><path d="m234.42 398.3c0 11.66-4.73 22.22-12.38 29.87-7.64 7.64-18.2 12.37-29.86 12.37h-30c11.66 0 22.22-4.73 29.86-12.37 7.65-7.65 12.38-18.21 12.38-29.87 0-23.33-18.91-42.24-42.24-42.24h30c23.33 0 42.24 18.91 42.24 42.24z"/></g></g><path d="m489.775 356.889v-59.153c0-58.141-21.482-113.869-60.489-156.92-2.781-3.069-7.524-3.303-10.594-.521-3.069 2.781-3.303 7.525-.522 10.594 36.502 40.286 56.604 92.438 56.604 146.848v52.42c-4.001-1.041-8.195-1.597-12.517-1.597h-3.034c-2.248-16.421-11.836-30.512-25.2-39.027v-5.11c0-98.163-79.861-178.024-178.024-178.024-41.269 0-81.493 14.444-113.265 40.672-3.194 2.638-3.646 7.364-1.009 10.559 2.636 3.193 7.364 3.646 10.558 1.01 29.09-24.015 65.924-37.24 103.715-37.24 89.366 0 162.155 72.282 163.004 161.451-4.62-1.271-9.462-1.958-14.441-1.958-9.458 0-18.436 2.447-26.296 6.754-.249-67.213-54.998-121.813-122.265-121.813s-122.016 54.6-122.268 121.809c-7.861-4.307-16.839-6.754-26.296-6.754-4.98 0-9.823.687-14.444 1.958.362-37.223 13.532-73.427 37.194-102.105 2.636-3.195 2.183-7.922-1.012-10.559-3.195-2.638-7.922-2.183-10.558 1.012-26.208 31.764-40.641 71.975-40.641 113.226v5.11c-13.364 8.516-22.952 22.607-25.2 39.027h-3.035c-4.322 0-8.516.556-12.517 1.597v-52.42c0-58.438 22.757-113.377 64.078-154.697 41.322-41.321 96.262-64.078 154.699-64.078 50.774 0 100.248 17.785 139.309 50.078 3.194 2.639 7.919 2.19 10.56-1.001 2.64-3.192 2.191-7.92-1.001-10.56-41.744-34.511-94.613-53.517-148.868-53.517-62.444 0-121.15 24.316-165.305 68.471s-68.471 102.861-68.471 165.304v59.153c-13.385 8.924-22.224 24.153-22.224 41.412 0 27.427 22.314 49.74 49.741 49.74h84.366c4.142 0 7.5-3.357 7.5-7.5s-3.358-7.5-7.5-7.5h-84.366c-19.156 0-34.741-15.585-34.741-34.741s15.584-34.74 34.741-34.74h5.979c6.155 0 11.178-4.656 11.685-10.831 1.691-20.657 19.275-36.838 40.032-36.838s38.341 16.181 40.033 36.837c.505 6.175 5.528 10.832 11.684 10.832h33.024c19.156 0 34.741 15.585 34.741 34.741s-15.585 34.74-34.741 34.74h-25.383c-4.142 0-7.5 3.357-7.5 7.5s3.358 7.5 7.5 7.5h25.383c27.427 0 49.741-22.313 49.741-49.741 0-23.182-15.943-42.709-37.44-48.198v-37.307c0-28.409 23.113-51.522 51.523-51.522 28.409 0 51.522 23.113 51.522 51.522v37.307c-21.497 5.49-37.439 25.016-37.439 48.199 0 27.427 22.313 49.74 49.741 49.74h142.435c27.428 0 49.741-22.313 49.741-49.741-.002-17.259-8.841-32.487-22.227-41.41zm-233.775-110.618c-36.681 0-66.523 29.842-66.523 66.522v35.765h-27.38c-1.509-11.024-6.326-20.999-13.371-28.945v-11.506c0-59.15 48.123-107.273 107.274-107.273 59.15 0 107.273 48.123 107.273 107.273v11.507c-7.044 7.945-11.861 17.921-13.37 28.945h-27.381v-35.765c0-36.681-29.841-66.523-66.522-66.523zm206.259 186.769h-142.435c-19.156 0-34.741-15.585-34.741-34.741s15.585-34.74 34.741-34.74h33.023c6.155 0 11.179-4.656 11.685-10.831 1.691-20.657 19.275-36.838 40.032-36.838s38.341 16.181 40.033 36.838c.506 6.175 5.529 10.831 11.684 10.831h5.978c19.156 0 34.741 15.585 34.741 34.741s-15.585 34.74-34.741 34.74z"/></g></svg>