<svg id="Capa_1" enable-background="new 0 0 512 512" height="512" viewBox="0 0 512 512" width="512" xmlns="http://www.w3.org/2000/svg" xmlns:xlink="http://www.w3.org/1999/xlink"><linearGradient id="SVGID_1_" gradientUnits="userSpaceOnUse" x1="256" x2="256" y1="512" y2="0"><stop offset="0" stop-color="#fd3a84"/><stop offset="1" stop-color="#ffa68d"/></linearGradient><g><g><g><path d="m497 211h-76v-15c0-90.981-74.019-165-165-165s-165 74.019-165 165v15h-76c-8.284 0-15 6.716-15 15s6.716 15 15 15h76v195c0 8.284 6.716 15 15 15h300c8.284 0 15-6.716 15-15v-195h76c8.284 0 15-6.716 15-15s-6.716-15-15-15zm-106 210h-270v-180h30v45c0 57.897 47.103 105 105 105s105-47.103 105-105c0-8.284-6.716-15-15-15s-15 6.716-15 15c0 41.355-33.645 75-75 75s-75-33.645-75-75v-45h90v45c0 8.271-6.729 15-15 15s-15-6.729-15-15c0-8.284-6.716-15-15-15s-15 6.716-15 15c0 24.813 20.187 45 45 45s45-20.187 45-45v-45h90zm-135-270c-27.415 0-45 23.829-45 48.545v11.455h-30v-11.448c0-37.92 25.201-70.338 59.922-77.083 22.493-4.368 45.348 1.332 62.704 15.641 17.396 14.343 27.374 35.443 27.374 57.89v15h-30v-15c0-24.813-20.187-45-45-45zm15 45v15h-30v-11.455c0-9.408 5.994-17.13 11.376-18.177 1.255-.244 2.475-.368 3.624-.368 8.271 0 15 6.729 15 15zm120 15h-30v-15c0-31.438-13.956-60.975-38.29-81.037-43.583-35.932-111.203-32.266-148.59 16.329-14.909 19.378-23.12 43.62-23.12 68.26v11.448h-30v-15c0-74.439 60.561-135 135-135s135 60.561 135 135zm-286 271h-30c-24.813 0-45-20.187-45-45v-30c0-8.284-6.716-15-15-15s-15 6.716-15 15v30c0 41.355 33.645 75 75 75h30c8.284 0 15-6.716 15-15s-6.716-15-15-15zm-90-362c8.284 0 15-6.716 15-15v-30c0-24.813 20.187-45 45-45h30c8.284 0 15-6.716 15-15s-6.716-15-15-15h-30c-41.355 0-75 33.645-75 75v30c0 8.284 6.716 15 15 15zm482 272c-8.284 0-15 6.716-15 15v30c0 24.813-20.187 45-45 45h-30c-8.284 0-15 6.716-15 15s6.716 15 15 15h30c41.355 0 75-33.645 75-75v-30c0-8.284-6.716-15-15-15zm-60-392h-30c-8.284 0-15 6.716-15 15s6.716 15 15 15h30c24.813 0 45 20.187 45 45v30c0 8.284 6.716 15 15 15s15-6.716 15-15v-30c0-41.355-33.645-75-75-75z" fill="url(#SVGID_1_)"/></g></g></g></svg>